<svg width="504" height="276" viewBox="0 0 504 276" fill="none" xmlns="http://www.w3.org/2000/svg">
<path d="M81.8545 275.232C36.6476 275.232 3.20384e-06 238.585 7.15595e-06 193.378C0.000105718 159.665 20.3816 130.714 49.4942 118.171L49.4942 -3.96957e-05L463.494 -3.50263e-06L463.494 114.966C486.067 117.693 503.559 136.913 503.56 160.222C503.56 185.4 483.148 205.812 457.97 205.812C440.997 205.812 426.192 196.536 418.344 182.778C411.222 186.25 403.221 188.197 394.766 188.197C389.792 188.197 384.975 187.522 380.402 186.261C366.486 205.63 343.762 218.245 318.092 218.245C304.02 218.245 290.834 214.453 279.498 207.837C272.681 221.384 258.655 230.679 242.455 230.679C230.472 230.679 219.678 225.591 212.111 217.46C201.804 232.924 184.205 243.112 164.227 243.112C158.769 243.112 153.489 242.352 148.486 240.932C133.64 261.697 109.328 275.232 81.8545 275.232ZM215.049 158.149L214.764 158.149C214.794 158.206 214.826 158.261 214.856 158.317C214.92 158.261 214.985 158.206 215.049 158.149Z" fill="#00415E"/>
<circle cx="123.553" cy="59.63" r="25.37" fill="#D3D4DE"/>
<circle cx="114.791" cy="47.9256" r="4.65732" fill="#C5C6D0"/>
<circle cx="134.021" cy="59.4158" r="6.75236" fill="#F1F1F3"/>
<path d="M137.303 74.3304C139.328 74.3304 141.143 75.2223 142.38 76.6332C139.381 79.9524 135.517 82.4744 131.142 83.8441C130.764 83.001 130.551 82.0665 130.551 81.0824C130.552 77.3535 133.574 74.3307 137.303 74.3304Z" fill="#C5C6D0"/>
<circle cx="117.81" cy="75.6243" r="3.01873" fill="#C5C6D0"/>
<circle cx="140.773" cy="50.2545" r="25.37" fill="#013D57"/>
<path d="M74.9675 93.9294C74.9675 93.9294 76.3394 101.063 82.4882 99.4478C82.4882 99.4478 77.3299 103.399 79.3108 108.07C79.3108 108.07 76.9591 102.785 71.6683 103.044C71.6683 103.044 76.2176 101.556 74.9675 93.9294Z" fill="#FCFCFC"/>
<path d="M413.235 41.1977C413.235 41.1977 414.606 48.3316 420.755 46.7161C420.755 46.7161 415.597 50.6672 417.578 55.3384C417.578 55.3384 415.226 50.0528 409.935 50.3125C409.935 50.3125 414.485 48.8241 413.235 41.1977Z" fill="#6D75B0"/>
<path d="M75.1898 154.167C75.1898 154.167 76.1295 159.053 80.3409 157.947C80.3409 157.947 76.8079 160.653 78.1646 163.852C78.1646 163.852 76.5539 160.232 72.9301 160.41C72.9301 160.41 76.0461 159.39 75.1898 154.167Z" fill="#6D75B0"/>
<path d="M435.578 92.1838C435.578 92.1838 431.369 94.335 433.494 97.8836C433.494 97.8836 430.09 95.3775 427.531 97.4625C427.531 97.4625 430.406 95.0344 429.284 91.7759C429.284 91.7759 431.039 94.3483 435.578 92.1838Z" fill="white"/>
<path d="M88.517 144.148C88.517 144.148 89.4566 149.034 93.6681 147.928C93.6681 147.928 90.135 150.634 91.4918 153.833C91.4918 153.833 89.8811 150.213 86.2573 150.391C86.2573 150.391 89.3732 149.372 88.517 144.148Z" fill="#6D75B0"/>
<path d="M455.449 123.832C455.449 123.832 451.241 125.983 453.366 129.531C453.366 129.531 449.962 127.025 447.402 129.11C447.402 129.11 450.278 126.682 449.156 123.424C449.156 123.424 450.911 125.996 455.449 123.832Z" fill="#6D75B0"/>
</svg>
