<svg width="669" height="1243" viewBox="0 0 669 1243" fill="none" xmlns="http://www.w3.org/2000/svg">
<path opacity="0.3" d="M123.52 32C125.16 31.97 238.93 202.28 309.83 374.31C268.19 302 205.52 205.33 71.0005 95.8C71.1105 95.89 87.5304 77.12 89.0404 75.41C94.4104 69.34 119.93 32.07 123.52 32Z" fill="#53BCE9"/>
<path opacity="0.3" d="M300 -1.61295e-05C423.343 127.002 519.104 280.994 578.685 448.154C581.685 456.554 584.629 465.388 583.407 474.222C582.185 483.056 575.407 491.792 566.533 492.044C558.741 492.253 552.325 486.271 546.853 480.68C530.214 463.683 513.562 446.7 496.924 429.703C484.674 417.207 467.175 403.691 451.648 411.686C441.44 416.955 437.329 430.08 438.995 441.5C440.662 452.92 446.842 463.082 452.786 472.95C452.786 472.95 641.974 851.355 667.932 990C645.877 847.707 601.879 715.226 539.2 585.764C534.173 575.393 527.978 558.689 527.353 547.158C526.728 535.626 532.006 522.92 542.644 518.615C558.824 512.06 575.046 527.128 586.101 540.7C601.142 559.151 616.184 577.587 631.225 596.038C636.169 602.104 642.016 608.66 649.794 609.149C658.64 609.722 666.182 601.643 668.196 592.949C670.21 584.255 668.071 575.197 665.849 566.559C621.614 394.633 506.896 161.177 365.234 13.0132L300 -1.61295e-05Z" fill="#53BCE9"/>
<circle cx="212.917" cy="140.044" r="25.37" fill="#D3D4DE"/>
<circle cx="230.138" cy="130.668" r="25.37" fill="#013D57"/>
<path d="M107.178 126.99C107.178 126.99 110.582 123.712 107.52 120.931C107.52 120.931 111.505 122.343 113.35 119.606C113.35 119.606 111.301 122.763 113.319 125.557C113.319 125.557 110.894 123.604 107.178 126.99Z" fill="white"/>
<path d="M394.971 119.882C394.971 119.882 396.342 127.016 402.491 125.4C402.491 125.4 397.333 129.351 399.314 134.022C399.314 134.022 396.962 128.737 391.671 128.997C391.671 128.997 396.221 127.508 394.971 119.882Z" fill="#7B9FAE"/>
<path d="M452.437 139.738C424.674 131.929 428.723 155.355 434.507 155.355C436.883 155.355 441.809 155.933 447.81 155.933H466.03C489.166 155.933 495.818 154.391 496.108 153.909C498.132 138.581 485.889 140.027 479.334 141.762C480.394 136.074 479.276 124.583 466.319 124.121C453.362 123.658 451.666 134.339 452.437 139.738Z" fill="#054865"/>
<path d="M131.616 152.043C131.616 152.043 128.236 145.613 122.819 148.941C122.819 148.941 126.611 143.664 123.361 139.768C123.361 139.768 127.144 144.145 132.132 142.363C132.132 142.363 128.209 145.106 131.616 152.043Z" fill="#7B9FAE"/>
<path opacity="0.7" d="M153.7 153.68L154.82 159.69L155.94 153.68L158.18 155.21L156.64 152.98L162.65 151.86L156.64 150.74L158.18 148.5L155.94 150.04L154.82 144.03L153.7 150.04L151.47 148.5L153 150.74L146.99 151.86L153 152.98L151.47 155.21L153.7 153.68Z" fill="#E1D1FF"/>
<path d="M89.1031 161.157C68.0757 155.269 71.142 172.934 75.5227 172.934C77.3225 172.934 81.0533 173.37 85.5989 173.37H99.3983C116.921 173.37 121.959 172.207 122.178 171.843C123.712 160.285 114.439 161.375 109.474 162.684C110.277 158.395 109.43 149.73 99.617 149.381C89.8038 149.032 88.5189 157.086 89.1031 161.157Z" fill="#054865"/>
<path d="M300.239 178.37C263.75 168.107 269.071 198.895 276.673 198.895C279.796 198.895 286.27 199.655 294.158 199.655H318.104C348.511 199.655 357.253 197.628 357.634 196.994C360.294 176.849 344.204 178.75 335.588 181.03C336.982 173.555 335.512 158.453 318.483 157.844C301.455 157.236 299.225 171.274 300.239 178.37Z" fill="#054865"/>
<path opacity="0.7" d="M459.28 168.67L460.4 174.68L461.52 168.67L463.76 170.2L462.22 167.96L468.23 166.85L462.22 165.73L463.76 163.49L461.52 165.03L460.4 159.02L459.28 165.03L457.05 163.49L458.58 165.73L452.57 166.85L458.58 167.96L457.05 170.2L459.28 168.67Z" fill="#E1D1FF"/>
<g filter="url(#filter0_f_110_87)">
<path d="M386.61 167.861C386.61 167.861 382.402 170.012 384.527 173.56C384.527 173.56 381.122 171.054 378.563 173.139C378.563 173.139 381.439 170.711 380.317 167.453C380.317 167.453 382.072 170.025 386.61 167.861Z" fill="white"/>
</g>
<path d="M438.586 189.107C438.586 189.107 434.378 191.258 436.503 194.806C436.503 194.806 433.098 192.3 430.539 194.385C430.539 194.385 433.415 191.957 432.293 188.699C432.293 188.699 434.048 191.271 438.586 189.107Z" fill="#7B9FAE"/>
<path opacity="0.3" d="M0.510551 414.08C34.4705 415.09 4.29059 624.08 14.4306 591.66C42.4306 502.16 127.651 515.4 186.431 576.66C221.931 613.66 281.391 717.54 310.441 751.17C317.331 759.15 325.611 767.16 336.091 768.39C349.281 769.94 361.581 759.7 366.821 747.49C375.881 726.39 372.461 697.94 369.861 675.81C365.881 641.85 356.681 608.73 346.981 576.03C332.351 526.76 312.511 479.08 288.831 433.5C288.611 433.08 288.401 432.67 288.181 432.26C258.561 375.48 222.081 322.26 179.581 274.35C163.131 255.81 144.261 239.56 123.551 225.95C219.711 323.48 295.961 462.55 336.931 615.14C340.091 626.92 343.091 639.06 343.171 651.12C343.251 663.18 339.911 675.33 332.701 680.75C324.511 686.91 311.931 684.66 304.651 674.71C297.621 665.1 289.591 654.55 283.151 643.05C250.851 585.33 215.081 531.16 176.461 481.46C159.011 459 140.781 437.26 120.291 421.29C99.8006 405.33 76.7106 395.4 54.9206 398.31L0.510551 414.08Z" fill="#53BCE9"/>
<path opacity="0.7" d="M464.09 302.66L465.21 308.67L466.33 302.66L468.57 304.2L467.03 301.96L473.04 300.84L467.03 299.72L468.57 297.49L466.33 299.02L465.21 293.01L464.09 299.02L461.86 297.49L463.39 299.72L457.38 300.84L463.39 301.96L461.86 304.2L464.09 302.66Z" fill="#E1D1FF"/>
<path d="M91.1275 351.707C72.3598 346.428 75.0966 362.264 79.0065 362.264C80.6129 362.264 83.9428 362.655 87.9998 362.655H100.316C115.956 362.655 120.453 361.612 120.648 361.286C122.017 350.925 113.741 351.902 109.309 353.075C110.026 349.23 109.27 341.462 100.511 341.15C91.7529 340.837 90.6061 348.057 91.1275 351.707Z" fill="#054865"/>
<path opacity="0.7" d="M193.19 400.67L194.31 406.68L195.42 400.67L197.66 402.2L196.13 399.96L202.13 398.85L196.13 397.73L197.66 395.49L195.42 397.03L194.31 391.02L193.19 397.03L190.95 395.49L192.49 397.73L186.48 398.85L192.49 399.96L190.95 402.2L193.19 400.67Z" fill="#E1D1FF"/>
<path d="M436.177 354.575C394.542 342.799 400.614 378.128 409.287 378.128C412.851 378.128 420.238 379 429.238 379H456.561C491.256 379 501.232 376.674 501.666 375.947C504.702 352.83 486.342 355.011 476.511 357.628C478.101 349.05 476.424 331.72 456.994 331.022C437.564 330.324 435.02 346.433 436.177 354.575Z" fill="#054865" fill-opacity="0.4"/>
<path opacity="0.4" d="M164.44 441.42C164.44 442.386 165.224 443.17 166.19 443.17C167.157 443.17 167.94 442.386 167.94 441.42C167.94 440.453 167.157 439.67 166.19 439.67C165.224 439.67 164.44 440.453 164.44 441.42Z" fill="white"/>
<path opacity="0.7" d="M427.25 493.599L428.37 499.609L429.49 493.599L431.72 495.139L430.19 492.899L436.2 491.779L430.19 490.669L431.72 488.429L429.49 489.959L428.37 483.959L427.25 489.959L425.01 488.429L426.55 490.669L420.54 491.779L426.55 492.899L425.01 495.139L427.25 493.599Z" fill="#E1D1FF"/>
<path opacity="0.3" d="M17.0004 533.859C105.81 624.719 174.76 734.889 217.66 854.479C219.82 860.489 221.94 866.809 221.06 873.129C220.18 879.449 215.3 885.699 208.91 885.879C203.3 886.029 198.68 881.749 194.74 877.749C182.76 865.589 170.77 853.439 158.79 841.279C149.97 832.339 137.37 822.669 126.19 828.389C118.84 832.159 115.88 841.549 117.08 849.719C118.28 857.889 122.73 865.159 127.01 872.219C127.01 872.219 263.23 1142.94 281.92 1242.13C266.04 1140.33 234.36 1045.55 189.23 952.929C185.61 945.509 181.15 933.559 180.7 925.309C180.25 917.059 184.05 907.969 191.71 904.889C203.36 900.199 215.04 910.979 223 920.689C233.83 933.889 244.66 947.079 255.49 960.279C259.05 964.619 263.26 969.309 268.86 969.659C275.23 970.069 280.66 964.289 282.11 958.069C283.56 951.849 282.02 945.369 280.42 939.189C248.57 816.189 165.97 649.169 63.9704 543.169L17.0004 533.859Z" fill="#53BCE9"/>
<path opacity="0.4" d="M483.08 666.549C483.08 667.516 483.864 668.299 484.83 668.299C485.797 668.299 486.58 667.516 486.58 666.549C486.58 665.583 485.797 664.799 484.83 664.799C483.864 664.799 483.08 665.583 483.08 666.549Z" fill="white"/>
<path opacity="0.7" d="M412.39 783.709L413.51 789.719L414.63 783.709L416.86 785.239L415.33 783.009L421.34 781.889L415.33 780.769L416.86 778.529L414.63 780.069L413.51 774.059L412.39 780.069L410.15 778.529L411.69 780.769L405.68 781.889L411.69 783.009L410.15 785.239L412.39 783.709Z" fill="#E1D1FF"/>
<path opacity="0.4" d="M256.75 779.699C256.75 780.666 257.534 781.449 258.5 781.449C259.467 781.449 260.25 780.666 260.25 779.699C260.25 778.733 259.467 777.949 258.5 777.949C257.534 777.949 256.75 778.733 256.75 779.699Z" fill="white"/>
<path opacity="0.7" d="M276.7 807.649L277.81 813.649L278.93 807.649L281.17 809.179L279.63 806.939L285.64 805.829L279.63 804.709L281.17 802.469L278.93 804.009L277.81 797.999L276.7 804.009L274.46 802.469L275.99 804.709L269.99 805.829L275.99 806.939L274.46 809.179L276.7 807.649Z" fill="#E1D1FF"/>
<defs>
<filter id="filter0_f_110_87" x="374.563" y="163.453" width="16.0469" height="14.1077" filterUnits="userSpaceOnUse" color-interpolation-filters="sRGB">
<feFlood flood-opacity="0" result="BackgroundImageFix"/>
<feBlend mode="normal" in="SourceGraphic" in2="BackgroundImageFix" result="shape"/>
<feGaussianBlur stdDeviation="2" result="effect1_foregroundBlur_110_87"/>
</filter>
</defs>
</svg>
